<svg width="158" height="100" viewBox="0 0 158 100" fill="none" xmlns="http://www.w3.org/2000/svg">
<g filter="url(#filter0_d_1_670)">
<path d="M41.1105 39.3438C41.031 38.5994 40.6957 38.0199 40.1048 37.6051C39.5196 37.1903 38.7582 36.983 37.8207 36.983C37.1616 36.983 36.5963 37.0824 36.1247 37.2812C35.6531 37.4801 35.2923 37.75 35.0423 38.0909C34.7923 38.4318 34.6645 38.821 34.6588 39.2585C34.6588 39.6222 34.7412 39.9375 34.906 40.2045C35.0764 40.4716 35.3065 40.6989 35.5963 40.8864C35.8861 41.0682 36.2071 41.2216 36.5594 41.3466C36.9116 41.4716 37.2668 41.5767 37.6247 41.6619L39.2611 42.071C39.9202 42.2244 40.5537 42.4318 41.1616 42.6932C41.7753 42.9545 42.3236 43.2841 42.8065 43.6818C43.2952 44.0795 43.6815 44.5597 43.9656 45.1222C44.2497 45.6847 44.3918 46.3437 44.3918 47.0994C44.3918 48.1222 44.1304 49.0227 43.6077 49.8011C43.0849 50.5739 42.3293 51.179 41.3406 51.6165C40.3577 52.0483 39.1673 52.2642 37.7696 52.2642C36.4116 52.2642 35.2327 52.054 34.2327 51.6335C33.2384 51.2131 32.4599 50.5994 31.8974 49.7926C31.3406 48.9858 31.0395 48.0028 30.994 46.8438H34.1048C34.1503 47.4517 34.3378 47.9574 34.6673 48.3608C34.9969 48.7642 35.4259 49.0653 35.9543 49.2642C36.4884 49.4631 37.0849 49.5625 37.744 49.5625C38.4315 49.5625 39.0338 49.4602 39.5509 49.2557C40.0736 49.0455 40.4827 48.7557 40.7781 48.3864C41.0736 48.0114 41.2241 47.5739 41.2298 47.0739C41.2241 46.6193 41.0906 46.2443 40.8293 45.9489C40.5679 45.6477 40.2014 45.3977 39.7298 45.1989C39.2639 44.9943 38.7185 44.8125 38.0935 44.6534L36.1077 44.142C34.6702 43.7727 33.5338 43.2131 32.6986 42.4631C31.869 41.7074 31.4543 40.7045 31.4543 39.4545C31.4543 38.4261 31.7327 37.5256 32.2895 36.7528C32.852 35.9801 33.6162 35.3807 34.5821 34.9545C35.548 34.5227 36.6418 34.3068 37.8634 34.3068C39.102 34.3068 40.1872 34.5227 41.119 34.9545C42.0565 35.3807 42.7923 35.9744 43.3264 36.7358C43.8605 37.4915 44.1361 38.3608 44.1531 39.3438H41.1105ZM49.6795 44.3295V52H46.5943V34.5455H49.6113V41.1335H49.7647C50.0716 40.3949 50.546 39.8125 51.188 39.3864C51.8358 38.9545 52.6596 38.7386 53.6596 38.7386C54.5687 38.7386 55.3613 38.929 56.0375 39.3097C56.7136 39.6903 57.2363 40.2472 57.6057 40.9801C57.9807 41.7131 58.1682 42.608 58.1682 43.6648V52H55.0829V44.142C55.0829 43.2614 54.8557 42.5767 54.4011 42.0881C53.9522 41.5937 53.3216 41.3466 52.5091 41.3466C51.9636 41.3466 51.475 41.4659 51.0432 41.7045C50.617 41.9375 50.2818 42.2756 50.0375 42.7188C49.7988 43.1619 49.6795 43.6989 49.6795 44.3295ZM66.5433 52.2557C65.2649 52.2557 64.1569 51.9744 63.2194 51.4119C62.2819 50.8494 61.5546 50.0625 61.0376 49.0511C60.5262 48.0398 60.2705 46.858 60.2705 45.5057C60.2705 44.1534 60.5262 42.9687 61.0376 41.9517C61.5546 40.9347 62.2819 40.1449 63.2194 39.5824C64.1569 39.0199 65.2649 38.7386 66.5433 38.7386C67.8217 38.7386 68.9296 39.0199 69.8671 39.5824C70.8046 40.1449 71.5291 40.9347 72.0404 41.9517C72.5575 42.9687 72.816 44.1534 72.816 45.5057C72.816 46.858 72.5575 48.0398 72.0404 49.0511C71.5291 50.0625 70.8046 50.8494 69.8671 51.4119C68.9296 51.9744 67.8217 52.2557 66.5433 52.2557ZM66.5603 49.7841C67.2535 49.7841 67.833 49.5937 68.299 49.2131C68.7649 48.8267 69.1115 48.3097 69.3387 47.6619C69.5717 47.0142 69.6882 46.2926 69.6882 45.4972C69.6882 44.696 69.5717 43.9716 69.3387 43.3239C69.1115 42.6705 68.7649 42.1506 68.299 41.7642C67.833 41.3778 67.2535 41.1847 66.5603 41.1847C65.8501 41.1847 65.2592 41.3778 64.7876 41.7642C64.3217 42.1506 63.9722 42.6705 63.7393 43.3239C63.512 43.9716 63.3984 44.696 63.3984 45.4972C63.3984 46.2926 63.512 47.0142 63.7393 47.6619C63.9722 48.3097 64.3217 48.8267 64.7876 49.2131C65.2592 49.5937 65.8501 49.7841 66.5603 49.7841ZM77.2813 52L73.5824 38.9091H76.7273L79.0285 48.1136H79.1478L81.5001 38.9091H84.6109L86.9631 48.0625H87.091L89.358 38.9091H92.5114L88.804 52H85.591L83.1364 43.1534H82.9574L80.5029 52H77.2813ZM94.3219 34.5455H98.1912L103.373 47.1932H103.578L108.759 34.5455H112.629V52H109.595V40.0085H109.433L104.609 51.9489H102.342L97.5179 39.983H97.356V52H94.3219V34.5455ZM121.251 52.2557C119.938 52.2557 118.805 51.983 117.85 51.4375C116.902 50.8864 116.171 50.108 115.66 49.1023C115.149 48.0909 114.893 46.9006 114.893 45.5312C114.893 44.1847 115.149 43.0028 115.66 41.9858C116.177 40.9631 116.899 40.1676 117.825 39.5994C118.751 39.0256 119.839 38.7386 121.089 38.7386C121.896 38.7386 122.657 38.8693 123.373 39.1307C124.095 39.3864 124.731 39.7841 125.282 40.3239C125.839 40.8636 126.277 41.5511 126.595 42.3864C126.913 43.2159 127.072 44.2045 127.072 45.3523V46.2983H116.342V44.2188H124.115C124.109 43.6278 123.981 43.1023 123.731 42.642C123.481 42.1761 123.132 41.8097 122.683 41.5426C122.24 41.2756 121.723 41.142 121.132 41.142C120.501 41.142 119.947 41.2955 119.47 41.6023C118.992 41.9034 118.62 42.3011 118.353 42.7955C118.092 43.2841 117.958 43.821 117.953 44.4062V46.2216C117.953 46.983 118.092 47.6364 118.37 48.1818C118.649 48.7216 119.038 49.1364 119.538 49.4261C120.038 49.7102 120.623 49.8523 121.294 49.8523C121.742 49.8523 122.149 49.7898 122.512 49.6648C122.876 49.5341 123.191 49.3438 123.458 49.0938C123.725 48.8438 123.927 48.5341 124.063 48.1648L126.944 48.4886C126.762 49.25 126.416 49.9148 125.904 50.483C125.399 51.0455 124.751 51.483 123.961 51.7955C123.171 52.1023 122.268 52.2557 121.251 52.2557Z" fill="#FC7B7B"/>
</g>
<defs>
<filter id="filter0_d_1_670" x="26.994" y="34.3068" width="104.078" height="25.9574" filterUnits="userSpaceOnUse" color-interpolation-filters="sRGB">
<feFlood flood-opacity="0" result="BackgroundImageFix"/>
<feColorMatrix in="SourceAlpha" type="matrix" values="0 0 0 0 0 0 0 0 0 0 0 0 0 0 0 0 0 0 127 0" result="hardAlpha"/>
<feOffset dy="4"/>
<feGaussianBlur stdDeviation="2"/>
<feComposite in2="hardAlpha" operator="out"/>
<feColorMatrix type="matrix" values="0 0 0 0 0 0 0 0 0 0 0 0 0 0 0 0 0 0 1 0"/>
<feBlend mode="normal" in2="BackgroundImageFix" result="effect1_dropShadow_1_670"/>
<feBlend mode="normal" in="SourceGraphic" in2="effect1_dropShadow_1_670" result="shape"/>
</filter>
</defs>
</svg>
